<?xml version="1.0" encoding="utf-8"?>
<!-- Generator: Adobe Illustrator 19.2.1, SVG Export Plug-In . SVG Version: 6.00 Build 0)  -->
<svg version="1.1" id="Layer_1" xmlns="http://www.w3.org/2000/svg" xmlns:xlink="http://www.w3.org/1999/xlink" x="0px" y="0px"
	 viewBox="0 0 49.5 59.2" style="enable-background:new 0 0 49.5 59.2;" xml:space="preserve">
<style type="text/css">
	.st0{fill:none;stroke:#172947;stroke-width:2;stroke-miterlimit:10;}
</style>
<path class="st0" d="M47,12.1c0.6-0.6,0.8-1.5,0.5-2.3c-0.3-0.8-1.1-1.3-1.9-1.3h-8.4l3.3-3.8c0.8-0.9,0.7-2.2-0.2-2.9
	C39.4,1,38.1,1.1,37.4,2l-5.8,6.5H3.7C2.9,8.5,2.1,9,1.8,9.8s-0.1,1.7,0.5,2.3l20.3,20.3v21.3H18c-1.2,0-2.1,0.9-2.1,2.1
	c0,1.2,0.9,2.1,2.1,2.1h13.4c1.2,0,2.1-0.9,2.1-2.1s-0.9-2.1-2.1-2.1h-4.6V32.4L47,12.1z"/>
<circle class="st0" cx="22.9" cy="20.6" r="4.6"/>
</svg>
